<?xml version="1.0" encoding="utf-8"?>
<!-- Generator: Adobe Illustrator 15.0.0, SVG Export Plug-In . SVG Version: 6.00 Build 0)  -->
<!DOCTYPE svg PUBLIC "-//W3C//DTD SVG 1.1//EN" "http://www.w3.org/Graphics/SVG/1.1/DTD/svg11.dtd">
<svg version="1.1" id="Layer_1" xmlns="http://www.w3.org/2000/svg" xmlns:xlink="http://www.w3.org/1999/xlink" x="0px" y="0px"
	 width="612px" height="792px" viewBox="0 0 612 792" enable-background="new 0 0 612 792" xml:space="preserve">
<title>valtari-x-logo-main</title>
<polygon fill="#262261" points="612,355.829 581.872,355.829 571.828,365.871 561.786,355.829 531.657,355.829 531.657,385.957 
	541.7,396 531.657,406.043 531.657,436.172 561.786,436.172 571.828,426.128 581.872,436.172 612,436.172 612,406.043 601.957,396 
	612,385.957 "/>
<polygon fill="#FA1405" points="40.171,436.172 80.343,436.172 80.343,355.829 0,355.829 0,396 "/>
<polygon fill="#FA1405" points="126.622,355.829 166.794,355.829 166.794,436.172 86.451,436.172 86.451,396 "/>
<polygon fill="#FA1405" points="348.858,355.829 389.03,355.829 389.03,436.172 308.688,436.172 308.688,396 "/>
<polygon fill="#FA1405" points="172.902,355.829 172.902,355.829 172.902,436.172 253.245,436.172 "/>
<polygon fill="#FA1405" points="395.245,436.172 395.245,436.172 395.245,355.829 435.417,355.829 475.588,396 475.585,436.172 
	475.588,436.172 "/>
<polygon fill="#FA1405" points="262.407,436.172 302.58,396 302.58,355.829 222.236,355.829 222.236,396 "/>
<rect x="481.696" y="355.829" fill="#FA1405" width="43.119" height="80.343"/>
<image overflow="visible" width="300" height="58" xlink:href="../../../../../Desktop/valtari.png"  transform="matrix(1 0 0 1 284.416 439.5)">
</image>
</svg>
