<svg xmlns="http://www.w3.org/2000/svg" viewBox="0 0 516.41661 67.79483"><defs><style>.a{fill:#262261;}.b{fill:#fa1405;}</style></defs><title>valtari-x-logo-main</title><polygon class="a" points="516.417 0 490.994 0 482.519 8.474 474.045 0 448.622 0 448.622 25.423 457.096 33.897 448.622 42.372 448.622 67.795 474.045 67.795 482.519 59.32 490.994 67.795 516.417 67.795 516.417 42.372 507.942 33.897 516.417 25.423 516.417 0"/><polygon class="b" points="33.897 67.795 67.795 67.795 67.795 0 0 0 0 33.897 33.897 67.795"/><polygon class="b" points="106.846 0 140.744 0 140.744 67.795 72.949 67.795 72.949 33.897 106.846 0"/><polygon class="b" points="294.373 0 328.271 0 328.271 67.795 260.476 67.795 260.476 33.897 294.373 0"/><polygon class="b" points="145.898 0 145.898 0 145.898 67.795 213.693 67.795 145.898 0"/><polygon class="b" points="333.515 67.795 333.515 67.795 333.515 0 367.413 0 401.31 33.897 401.307 67.795 401.31 67.795 333.515 67.795"/><polygon class="b" points="221.424 67.795 255.322 33.897 255.322 0 187.527 0 187.527 33.897 221.424 67.795"/><rect class="b" x="406.46436" width="36.38404" height="67.79483"/></svg>