<svg xmlns="http://www.w3.org/2000/svg" viewBox="0 0 516.41649 67.79486"><defs><style>.a{fill:#fff;}</style></defs><title>valtari-x-logo-main</title><path class="a" d="M505.07812,11.33856v9.388l-5.15332,5.15332-8.01758,8.01749,8.01758,8.01749,5.15332,5.15338V56.4563h-9.38818l-5.15332-5.1535-8.01807-8.01749L474.50146,51.303l-5.15332,5.15326H459.96V47.06848l5.15381-5.15338,8.01807-8.01773-8.01807-8.01773L459.96,20.72638V11.33856h9.38818l5.15332,5.15323,8.01709,8.01761,8.01807-8.01736,5.15332-5.15347h9.38818M516.41649,0H490.99364L482.519,8.47427,474.04491,0H448.62157V25.4231l8.47461,8.4743-8.47461,8.47437v25.4231h25.42334L482.519,59.3205l8.47461,8.47437h25.42285V42.37177l-8.47412-8.47437,8.47412-8.4743V0Z"/><polygon class="a" points="33.897 67.795 67.795 67.795 67.795 0 0 0 0 33.897 33.897 67.795"/><polygon class="a" points="106.846 0 140.744 0 140.744 67.795 72.949 67.795 72.949 33.897 106.846 0"/><polygon class="a" points="294.373 0 328.271 0 328.271 67.795 260.476 67.795 260.476 33.897 294.373 0"/><polygon class="a" points="145.898 0 145.898 0 145.898 67.795 213.693 67.795 145.898 0"/><polygon class="a" points="333.515 67.795 333.515 67.795 333.515 0 367.413 0 401.31 33.897 401.307 67.795 401.31 67.795 333.515 67.795"/><polygon class="a" points="221.424 67.795 255.322 33.897 255.322 0 187.527 0 187.527 33.897 221.424 67.795"/><rect class="a" x="406.46436" y="0.00003" width="36.38404" height="67.79483"/></svg>